<svg xmlns="http://www.w3.org/2000/svg" viewBox="0 0 54.88868 43.70654"><defs><style>.cls-1{fill:#587a2b;}</style></defs><g id="Ebene_2" data-name="Ebene 2"><g id="Ebene_1-2" data-name="Ebene 1"><path class="cls-1" d="M50.44141,4.47168A15.12931,15.12931,0,0,0,39.67871,0h-.01758A15.12655,15.12655,0,0,0,28.9082,4.44727c-.17627.17584-.33227.36584-.49878.54864-.13275-.10217-.26629-.20312-.4024-.30109-.13568-.09765-.26514-.20318-.40405-.2965A15.441,15.441,0,0,0,7.2431,27.234L.36621,34.11084a1.24987,1.24987,0,1,0,1.76758,1.76758l6.877-6.877a15.3892,15.3892,0,0,0,20.70075-.6405c.122-.11737.24365-.23437.36175-.35571.11737-.12055.226-.249.33942-.37329a8.80318,8.80318,0,0,1,1.70746,5.17712v5.17969a3.00914,3.00914,0,0,0,3.00781,3.02246h.97461v.78027a1.92812,1.92812,0,0,0,1.917,1.915H41.29a1.92664,1.92664,0,0,0,1.91406-1.917v-.77832h.98828a3.02537,3.02537,0,0,0,3.02246-3.02246V32.80713a8.83849,8.83849,0,0,1,2.80274-6.42285l.2373-.22071a15.27956,15.27956,0,0,0,4.63379-10.92041A15.12623,15.12623,0,0,0,50.44141,4.47168ZM28.7204,25.783c-.11023.12512-.2215.24921-.33643.37s-.22876.24189-.3482.35822a12.91922,12.91922,0,0,1-18.15186-.089c-.01044-.01123-.01361-.026-.02454-.03693-.01086-.01086-.02569-.0141-.03686-.02447A12.94327,12.94327,0,0,1,26.06165,6.383c.14166.0924.27972.18866.41754.28637.13507.09577.26617.1966.39734.2973a13.04344,13.04344,0,0,1,1.51672,1.363c.11847.12476.23364.2525.34711.38184.11633.13269.23486.26281.34582.4002a12.89795,12.89795,0,0,1,1.37329,14.16925c-.08136.15357-.1712.30127-.25854.45112q-.12955.22238-.26728.43939A13.01542,13.01542,0,0,1,28.7204,25.783Zm16.512,12.20288a1.03752,1.03752,0,0,1-1.02637,1.02832H35.14062a1.03674,1.03674,0,0,1-1.02539-1.02539V33.80615H45.23242Zm3.44336-13.06543a10.82406,10.82406,0,0,0-3.34473,6.457l-.05761.4336H34.07422l-.0586-.43262a10.83694,10.83694,0,0,0-2.31689-5.34265c.09955-.14319.1936-.28968.28839-.43634.09534-.1474.18347-.2995.27387-.45032a15.34068,15.34068,0,0,0-1.6662-18.10846q-.1659-.18833-.33747-.37128c-.11438-.1217-.22009-.25152-.33831-.3695.17047-.18616.33386-.37824.51556-.55475a12.96337,12.96337,0,0,1,9.166-3.7627h.05468l.25782-.001a13.23811,13.23811,0,0,1,8.76269,22.939Z"/><path class="cls-1" d="M40.16211,6.61133V8.60938a6.63941,6.63941,0,0,1,6.10742,6.10693h1.998A8.64654,8.64654,0,0,0,40.16211,6.61133Z"/></g></g></svg>