<svg xmlns="http://www.w3.org/2000/svg" viewBox="0 0 33.49769 33.49805"><defs><style>.cls-1{fill:#612d62;}</style></defs><g id="Ebene_2" data-name="Ebene 2"><g id="Ebene_1-2" data-name="Ebene 1"><path class="cls-1" d="M20.56641,12.39355a9.51323,9.51323,0,0,0-.92676-.7539l-1.40527,1.40576a1.5546,1.5546,0,0,0-.459,1.10791,6.43614,6.43614,0,0,1,.69629.5625l.01465.00684.14355.144A6.31965,6.31965,0,0,1,18.626,23.792l-4.7251,4.72363c-.06641.06934-.15088.15333-.23779.23438a6.31271,6.31271,0,1,1-8.61182-9.23242l.8335-.835A14.1937,14.1937,0,0,1,5.17285,14.979L2.76416,17.38721A9.43753,9.43753,0,0,0,16.11035,30.73438l4.72559-4.72559a9.4565,9.4565,0,0,0,0-13.34619Z"/><path class="cls-1" d="M30.94922,2.95605l-.2041-.20263a9.46543,9.46543,0,0,0-13.34815,0L12.67285,7.47754a9.4413,9.4413,0,0,0,1.19678,14.3623l1.40576-1.40625a1.55723,1.55723,0,0,0,.45947-1.10742,6.53831,6.53831,0,0,1-.84668-.70605,6.311,6.311,0,0,1-.1538-8.77832l.00537-.01075L19.6084,4.96a6.313,6.313,0,0,1,9.1123,8.73975c-.08789.09033-.17285.17431-.25879.25537L27.625,14.793a14.18522,14.18522,0,0,1,.71484,3.749l2.40528-2.45019A9.46676,9.46676,0,0,0,30.94922,2.95605Z"/></g></g></svg>