<svg xmlns="http://www.w3.org/2000/svg" viewBox="0 0 46.95312 35.85501"><defs><style>.cls-1{fill:#fab72d;}</style></defs><g id="Ebene_2" data-name="Ebene 2"><g id="Ebene_1-2" data-name="Ebene 1"><g id="Gruppe_36" data-name="Gruppe 36"><path id="Pfad_52" data-name="Pfad 52" class="cls-1" d="M29.8343,30.601a2.633,2.633,0,0,0,1.577.608,1.7,1.7,0,0,0,1.431-.751,2.722,2.722,0,0,0,.429-1.583V19.601l2.9-1.086a.864.864,0,0,0,.561-.809V12.953a.864.864,0,0,0-.561-.809l-2.9-1.086V2.329c0-1.609-.932-2.329-1.855-2.329a2.64,2.64,0,0,0-1.581.61l-.043.035-7.242,6.249a5.434,5.434,0,0,1-3.287,1.307H3.41931a3.563,3.563,0,0,0-3.419,3.606V19.4a3.46,3.46,0,0,0,3.419,3.492h1.441l1.628,12.213a.865.865,0,0,0,.857.75h6.913a.865.865,0,0,0,.857-.979l-1.6-11.984h5.745a5.541,5.541,0,0,1,3.3,1.363l7.229,6.311.047.038Zm5.165-17.051v3.556l-1.728.648V12.902Zm-33.271,5.847V11.804a1.838,1.838,0,0,1,1.691-1.877h13V21.163h-13a1.731,1.731,0,0,1-1.691-1.764Zm11.543,14.727h-5.17l-1.5-11.234h5.17Zm10.357-11.233a7.374,7.374,0,0,0-4.363-1.731h-1.115V9.926h1.115a7.16413,7.16413,0,0,0,4.352-1.674l.043-.035,7.241-6.248a1.15,1.15,0,0,1,.513-.252.967.967,0,0,1,.131.609V28.873a1.15511,1.15511,0,0,1-.117.606h-.014a.96809.96809,0,0,1-.512-.241l-7.227-6.31a.55742.55742,0,0,0-.047-.038Z"/><g id="Gruppe_36-2" data-name="Gruppe 36-2"><path id="Pfad_53" data-name="Pfad 53" class="cls-1" d="M46.1333,15.88h-6.66a.821.821,0,0,1-.00232-1.642h6.6623a.821.821,0,0,1,0,1.642Z"/><path id="Pfad_54" data-name="Pfad 54" class="cls-1" d="M39.55536,12.261a.821.821,0,0,1-.581-1.4l4.71-4.71a.821.821,0,0,1,1.161,1.161l-4.71,4.71A.81894.81894,0,0,1,39.55536,12.261Z"/><path id="Pfad_55" data-name="Pfad 55" class="cls-1" d="M44.26532,24.208a.819.819,0,0,1-.581-.241l-4.71-4.71a.821.821,0,0,1,1.161-1.161l4.71,4.71a.821.821,0,0,1-.581,1.4Z"/></g></g></g></g></svg>