<svg xmlns="http://www.w3.org/2000/svg" viewBox="0 0 108.43368 108.42773"><defs><style>.cls-1{fill:#612d62;}</style></defs><g id="Ebene_2" data-name="Ebene 2"><g id="Ebene_1-2" data-name="Ebene 1"><path class="cls-1" d="M72.45809,59.18848a1.32745,1.32745,0,0,0,1.32324-1.32325V55.541h34.65235V52.8877H73.78133V50.56836a1.322,1.322,0,0,0-1.32324-1.3252h-16.915V35.47559H77.92977A1.322,1.322,0,0,0,79.252,34.15137a1.33924,1.33924,0,0,0-.26465-.794l-5.207-6.93262V1.32324A1.32493,1.32493,0,0,0,72.45712,0H35.97958a1.32493,1.32493,0,0,0-1.32325,1.32324V26.4209l-5.208,6.93262a1.32485,1.32485,0,0,0,1.05957,2.11816H52.89462V49.23926h-16.915a1.32742,1.32742,0,0,0-1.32422,1.32519V52.8877H.003v2.64843H34.65536v2.32325a1.32514,1.32514,0,0,0,1.32422,1.32324h7.7998v4.64843H25.03622A1.32639,1.32639,0,0,0,23.712,65.1543v7.7998H6.794a1.3241,1.3241,0,0,0-1.32227,1.32324V99.375l-5.208,6.93262a1.32426,1.32426,0,0,0,1.05957,2.11816H48.74422a1.324,1.324,0,0,0,1.0586-2.11816L44.59676,99.375V74.27734a1.32493,1.32493,0,0,0-1.32324-1.32324H26.36044V66.48242H45.09481a1.32514,1.32514,0,0,0,1.32324-1.32422V59.18848H62.00887v5.97168a1.32619,1.32619,0,0,0,1.32227,1.32422H82.0704v6.47167H65.16024A1.32493,1.32493,0,0,0,63.837,74.2793V99.37695l-5.207,6.93262a1.32426,1.32426,0,0,0,1.05957,2.11816h47.41992a1.324,1.324,0,0,0,1.05859-2.11816l-5.207-6.93262V74.27734a1.32409,1.32409,0,0,0-1.32226-1.32324h-16.917V65.1543a1.32514,1.32514,0,0,0-1.32324-1.32422H64.65829v-4.6416ZM46.10165,105.78027H3.97762L7.462,101.13184H42.61434ZM41.95321,75.59961V98.48828H8.12215V75.60156ZM104.464,105.78027h-42.124l3.48535-4.64843h35.15234Zm-4.14746-30.18066V98.48828H66.48739V75.60156ZM37.30477,2.64746H71.13485V25.5332H37.30477ZM33.15731,32.82715l3.48535-4.64844H71.794l3.48633,4.64844Zm4.14648,23.71094V51.8877H71.13387l-.001,4.65039Z"/><rect class="cls-1" x="41.95028" y="9.11914" width="2.64844" height="2.64746"/><rect class="cls-1" x="41.95028" y="16.41504" width="2.64844" height="2.64844"/><rect class="cls-1" x="63.83797" y="9.11914" width="2.64844" height="2.64746"/><rect class="cls-1" x="63.83797" y="16.41504" width="2.64844" height="2.64844"/><rect class="cls-1" x="49.24618" y="12.7666" width="2.64844" height="2.64844"/><rect class="cls-1" x="56.54208" y="12.7666" width="2.64844" height="2.64844"/><rect class="cls-1" x="52.89462" y="7.29492" width="2.64746" height="2.64844"/><rect class="cls-1" x="52.89462" y="18.23926" width="2.64746" height="2.64746"/><rect class="cls-1" x="16.41805" y="85.72168" width="2.64844" height="2.64844"/><rect class="cls-1" x="31.00692" y="85.72168" width="2.64844" height="2.64844"/><rect class="cls-1" x="23.71395" y="80.25" width="2.64844" height="2.64844"/><rect class="cls-1" x="23.71395" y="91.19434" width="2.64844" height="2.64746"/><rect class="cls-1" x="74.78133" y="85.72168" width="2.64844" height="2.64844"/><rect class="cls-1" x="89.37313" y="85.72168" width="2.64844" height="2.64844"/><rect class="cls-1" x="82.07723" y="80.25" width="2.64844" height="2.64844"/><rect class="cls-1" x="82.07723" y="91.19434" width="2.64844" height="2.64746"/></g></g></svg>