<svg xmlns="http://www.w3.org/2000/svg" viewBox="0 0 49.96387 51.43066"><defs><style>.cls-1{fill:#612d62;}</style></defs><g id="Ebene_2" data-name="Ebene 2"><g id="Ebene_1-2" data-name="Ebene 1"><path class="cls-1" d="M49.71387,12.84766a2.42,2.42,0,0,0-2.41309-2.33008c-.02344,0-.04785,0-.07129.001a4.20191,4.20191,0,0,0-4.0459,4.31446l.12012,3.71582-.60254,2.44043a3.08826,3.08826,0,0,0-2.10156.90039l-4.12207,4.125-1.39746.24219a4.715,4.715,0,0,0-2.543,1.31347l-2.85742,2.8584A4.69066,4.69066,0,0,0,28.293,33.66406l-.10352,4.65039a3.513,3.513,0,0,0-2.32324,3.25977l-.06641,6.20019a3.52038,3.52038,0,0,0,3.46778,3.542l10.28613.10937.00586.00488h.04492a3.52913,3.52913,0,0,0,3.50391-3.46777l.06738-6.20019a3.51689,3.51689,0,0,0-2.20312-3.28809l.00683-.04492A4.803,4.803,0,0,1,42.334,35.73828l4.82911-4.832a7.78,7.78,0,0,0,2.22949-4.66406l.51074-4.85059a3.36245,3.36245,0,0,0,.06055-.56933ZM41.2168,41.7373l-.06739,6.2002a1.5491,1.5491,0,0,1-.46582,1.08594,1.60663,1.60663,0,0,1-1.10058.44629L29.29,49.35938a1.54868,1.54868,0,0,1-1.08692-.46778l-.08593-.08789a1.54368,1.54368,0,0,1-.35742-1.00391l.0664-6.20019a1.55982,1.55982,0,0,1,1.56641-1.53809l10.292.11036A1.55956,1.55956,0,0,1,41.2168,41.7373Zm-2.18555-3.5957-.00977.06836-8.87695-.09863.09668-4.40625a2.74721,2.74721,0,0,1,.77149-1.85156l.00976.001,2.89942-2.90039a2.77307,2.77307,0,0,1,1.49023-.76562l1.70508-.29981a.88594.88594,0,0,0,.21093-.0625.99.99,0,0,0,.31153-.208l4.33984-4.34277a1.12078,1.12078,0,0,1,.7959-.3291h.00293a1.11711,1.11711,0,0,1,.7959.333,1.12994,1.12994,0,0,1,0,1.59082L38.58691,29.8584a.978.978,0,0,0,.69141,1.66992h.001a.97775.97775,0,0,0,.69238-.28711L44.958,26.25293a3.07615,3.07615,0,0,0,.01758-4.3457,3.0334,3.0334,0,0,0-.40528-.34278l.66114-2.6748.001-.0332a.742.742,0,0,0,.01563-.10547l.00293-.03711c.002-.01953.0039-.03907.0039-.0586l-.125-3.88183a2.23857,2.23857,0,0,1,2.14453-2.29785h.01368a.45771.45771,0,0,1,.457.4375l.25,7.75976-.5625,5.36524a5.81332,5.81332,0,0,1-1.665,3.48437l-4.82813,4.8291A6.76809,6.76809,0,0,0,39.03125,38.1416ZM49.83844,20.78333V20.7832h.00043Z"/><circle class="cls-1" cx="39.30176" cy="42.52148" r="1.58496"/><path class="cls-1" d="M21.77539,38.31543,21.67188,33.665a4.68575,4.68575,0,0,0-1.38575-3.2334l-2.85937-2.86035a4.7237,4.7237,0,0,0-2.54-1.31152l-1.40039-.24219-4.124-4.127a3.0536,3.0536,0,0,0-2.0996-.89843l-.60254-2.44141.12011-3.7168a4.20358,4.20358,0,0,0-4.05566-4.31347c-.02051-.001-.041-.001-.0625-.001A2.42215,2.42215,0,0,0,.25,12.85156L0,20.69922v.22558H.0127a3.09847,3.09847,0,0,0,.05664.46l.51171,4.85937a7.78439,7.78439,0,0,0,2.22852,4.66309l4.83008,4.8291a4.80382,4.80382,0,0,1,1.35156,2.68652l.00781.04883A3.514,3.514,0,0,0,6.7959,41.75977l.0664,6.20117a3.529,3.529,0,0,0,3.50391,3.46679l10.332-.11035a3.52018,3.52018,0,0,0,3.4668-3.542l-.06641-6.20117A3.5099,3.5099,0,0,0,21.77539,38.31543ZM2.21,12.918a.45016.45016,0,0,1,.13477-.30664l.01855-.01758a.47436.47436,0,0,1,.30957-.11816H2.6748a2.24034,2.24034,0,0,1,2.15528,2.29687l-.125,3.85156v.03223a.39963.39963,0,0,0,.00683.0957.32486.32486,0,0,0,.0127.08106l.665,2.7334a3.03137,3.03137,0,0,0-.38867.32714,3.09265,3.09265,0,0,0,0,4.36231l4.99121,4.99023a1.04282,1.04282,0,0,0,.70215.2627A.98.98,0,0,0,11.373,29.8584L6.38574,24.87207a1.128,1.128,0,0,1,1.59473-1.5957l4.34668,4.34375a1.02626,1.02626,0,0,0,.32226.21386.97022.97022,0,0,0,.19727.05567l1.709.2998a2.76314,2.76314,0,0,1,1.48731.76465l2.85937,2.86035a2.74328,2.74328,0,0,1,.8125,1.89356l.09668,4.40722-8.877.09864-.00977-.07325a6.77,6.77,0,0,0-1.90625-3.78613l-4.8291-4.8291a5.81337,5.81337,0,0,1-1.665-3.4834l-.499-4.74511a.24608.24608,0,0,0-.00684-.07422l-.05566-.53028ZM22.21289,47.80078a1.55938,1.55938,0,0,1-1.53125,1.56543l-10.292.11035A1.57781,1.57781,0,0,1,9.29,49.03223a1.52632,1.52632,0,0,1-.4668-1.08692l-.0664-6.20019a1.55854,1.55854,0,0,1,1.53027-1.56543l10.31055-.11035a1.5559,1.5559,0,0,1,1.54687,1.47949Z"/><circle class="cls-1" cx="10.67188" cy="42.52148" r="1.58496"/><path class="cls-1" d="M30.23242,13.39453a5.24317,5.24317,0,1,0-5.24316,5.24317A5.2497,5.2497,0,0,0,30.23242,13.39453Zm-8.53027-.001a3.29428,3.29428,0,0,1,3.16211-3.2871h.125a3.28711,3.28711,0,1,1-3.28711,3.2871Z"/><path class="cls-1" d="M12.70605,18.92773l1.34766,2.334a2.03868,2.03868,0,0,0,2.78711.74609l1.48242-.85547A10.13129,10.13129,0,0,0,21.5957,23.041v1.71191a2.0521,2.0521,0,0,0,2.041,2.041h2.70019a2.04578,2.04578,0,0,0,2.03907-2.04V23.042a10.12074,10.12074,0,0,0,3.27343-1.88867l1.48145.85547a2.06958,2.06958,0,0,0,1.5498.20508A2.01319,2.01319,0,0,0,35.919,21.2627l1.34765-2.334a2.04682,2.04682,0,0,0-.74609-2.78711l-1.48145-.85547a10.28678,10.28678,0,0,0,0-3.77929l1.48047-.8545a2.04622,2.04622,0,0,0,.74609-2.78808L35.918,5.53027a2.04619,2.04619,0,0,0-2.78711-.74609l-1.48145.85644A10.1002,10.1002,0,0,0,28.376,3.751V2.03906A2.04221,2.04221,0,0,0,26.33789,0H23.6377a2.0445,2.0445,0,0,0-2.04,2.03906V3.751a10.12345,10.12345,0,0,0-3.27344,1.88964L16.8418,4.78418a2.04832,2.04832,0,0,0-2.78711.74609l-1.34864,2.335a2.04533,2.04533,0,0,0,.7461,2.78711l1.48144.8545a10.24493,10.24493,0,0,0,0,3.77929l-1.48144.85547A2.04373,2.04373,0,0,0,12.70605,18.92773Zm10.29786,2.51465-.03516-.01367a1.07631,1.07631,0,0,0-.14844-.05469,8.25435,8.25435,0,0,1-3.65625-2.11035.96754.96754,0,0,0-1.02246-.2207l-.04883.00976a2.795,2.795,0,0,0-.30175.14942l-1.92579,1.1123a.08813.08813,0,0,1-.11621-.03125l-1.34765-2.333a.084.084,0,0,1,.02929-.11622l1.91895-1.10839a2.68128,2.68128,0,0,0,.292-.19629c.01074-.00879.02246-.01953.04785-.04395a.96694.96694,0,0,0,.32325-.60937,1.06982,1.06982,0,0,0,.00683-.166.21563.21563,0,0,0-.00683-.05957.65608.65608,0,0,0-.01954-.11523l-.0039-.03125a8.34584,8.34584,0,0,1,0-4.22461.98386.98386,0,0,0-.37793-1.043,2.64326,2.64326,0,0,0-.26172-.17383L14.43066,8.9541a.0856.0856,0,0,1-.03125-.11523l1.34766-2.333a.08829.08829,0,0,1,.11621-.03223L17.7832,7.583a2.65223,2.65223,0,0,0,.29395.14551.604.604,0,0,0,.0625.02148.98166.98166,0,0,0,.30469.05957h.03711a1.007,1.007,0,0,0,.32128-.05664l.03711-.00977a.98315.98315,0,0,0,.31739-.21,8.25388,8.25388,0,0,1,3.65918-2.11328.559.559,0,0,0,.07129-.02539l.04882-.01953a.93992.93992,0,0,0,.25879-.15918l.03028-.02637a1.05679,1.05679,0,0,0,.19238-.24218l.01367-.03028a.94268.94268,0,0,0,.10059-.31738,2.79183,2.79183,0,0,0,.02246-.33789V2.03613a.08566.08566,0,0,1,.085-.085h2.69726a.08462.08462,0,0,1,.084.084V4.251a2.85066,2.85066,0,0,0,.02148.34472,1.27878,1.27878,0,0,0,.02832.13379.55664.55664,0,0,0,.01563.05762.49953.49953,0,0,0,.03027.06836.89933.89933,0,0,0,.04492.09863l.02442.03809a1.10323,1.10323,0,0,0,.085.11328.49529.49529,0,0,0,.03906.03808,1.0498,1.0498,0,0,0,.0957.08985.58655.58655,0,0,0,.05957.04,1.04324,1.04324,0,0,0,.10352.06445.42852.42852,0,0,0,.05273.02149.94454.94454,0,0,0,.123.04785l.02832.00586a8.24782,8.24782,0,0,1,3.64258,2.10937.98539.98539,0,0,0,.332.21484.96421.96421,0,0,0,.33887.06641h.03906a1.04894,1.04894,0,0,0,.32715-.06641l.042-.01464a2.8468,2.8468,0,0,0,.29492-.14551l1.919-1.1084a.08288.08288,0,0,1,.11426.03027l1.34863,2.334a.08307.08307,0,0,1-.03027.11426l-1.919,1.10742c-.08594.05078-.16992.10449-.248.16113a.97175.97175,0,0,0-.38379,1.09277,8.3674,8.3674,0,0,1-.00878,4.19629.66657.66657,0,0,0-.02149.15235l-.00879.04a1.294,1.294,0,0,0,.00781.18847.99417.99417,0,0,0,.33692.60742c.01074.00977.02246.02051.04492.03907a2.63571,2.63571,0,0,0,.28027.18652L35.54,17.82617a.08473.08473,0,0,1,.03125.11524l-1.34961,2.33593a.082.082,0,0,1-.0498.03809.07947.07947,0,0,1-.0625-.00879l-1.919-1.10742a2.87246,2.87246,0,0,0-.30566-.15234l-.041-.00977a.97873.97873,0,0,0-1.0293.22168,8.25391,8.25391,0,0,1-3.63086,2.10644l-.03808.00586c-.01953.00684-.03809.01368-.07227.02832A.97105.97105,0,0,0,26.4873,22l-.00781.0332a.92623.92623,0,0,0-.03515.16211,2.59031,2.59031,0,0,0-.02149.33692v2.21582a.0846.0846,0,0,1-.084.084h-2.7002a.0846.0846,0,0,1-.084-.084V22.53418a3.31211,3.31211,0,0,0-.02149-.34473,1.192,1.192,0,0,0-.02734-.124.49386.49386,0,0,0-.0166-.06152.387.387,0,0,0-.02637-.06153A.97206.97206,0,0,0,23.00391,21.44238Zm.35254.56543-.00062.00043-.00012-.00024Z"/></g></g></svg>