<svg xmlns="http://www.w3.org/2000/svg" viewBox="0 0 52.38992 53.07773"><defs><style>.cls-1{fill:#f11a29;}</style></defs><g id="Ebene_2" data-name="Ebene 2"><g id="Ebene_1-2" data-name="Ebene 1"><g id="Gruppe_19" data-name="Gruppe 19"><path id="Pfad_4" data-name="Pfad 4" class="cls-1" d="M51.57821,23.29171a3.53,3.53,0,0,0-2.821-1.336,4.41469,4.41469,0,0,0-.958.109,5.924,5.924,0,0,0-2.982,1.95l-.224.224-2.993,3.194a1.106,1.106,0,0,1-.218.166l-3.567,2.042a3.589,3.589,0,0,0-2.5-1.009h-5.93a7.593,7.593,0,0,1-2.064-.281l-4.984-1.915a9.708,9.708,0,0,0-8.355.614,8.10235,8.10235,0,0,0-1.21.849l-.04.04a.196.196,0,0,1-.023.017,1.23086,1.23086,0,0,0-.109.1l-3.283,3.3-.835-.895a2,2,0,0,0-1.422-.648,2.02809,2.02809,0,0,0-1.462.551l-4.949,4.616a2,2,0,0,0-.648,1.422,2.02808,2.02808,0,0,0,.551,1.462l13.585,14.566a2,2,0,0,0,1.422.648h.075a2.01,2.01,0,0,0,1.388-.551l4.943-4.61a2.036,2.036,0,0,0,.112-2.87717l-.012-.01285-1.041-1.116,2.441-1.992a3.161,3.161,0,0,1,2.1-.711l7.954.247a10.85594,10.85594,0,0,0,7.731-2.936l4.582-4.33.017-.017a2.14087,2.14087,0,0,0,.161-.166l5.6-6.618a3.029,3.029,0,0,0-.029-4.089Zm-30.779,23.351-4.955,4.622a.319.319,0,0,1-.23.086.333.333,0,0,1-.224-.1l-13.585-14.566a.319.319,0,0,1-.086-.23.333.333,0,0,1,.1-.224l4.949-4.622a.31407.31407,0,0,1,.218-.086h0c.006,0,.011.006.011,0a.308.308,0,0,1,.224.1l1.439,1.543,10.472,11.239,1.674,1.8a.3191.3191,0,0,1,.086.229.274.274,0,0,1-.092.209Zm29.517-20.41-.012.012-5.609,6.63-.063.063-4.576,4.324a9.093,9.093,0,0,1-6.492,2.466l-7.954-.247a4.90008,4.90008,0,0,0-3.24,1.1l-2.522,2.061-9.357-10.033,3.322-3.337a.082.082,0,0,0,.023-.017c.023-.023.052-.046.08-.075a5.98115,5.98115,0,0,1,.923-.642,8,8,0,0,1,6.881-.494l5.018,1.927.069.023a9.27282,9.27282,0,0,0,2.569.361h5.941a1.89405,1.89405,0,0,1,1.583.86l.061.094a1.9,1.9,0,0,1-.044,1.913l-.04.069a1.891,1.891,0,0,1-1.56.877c-2.552.052-7.547.012-9.015,0l-.017,1.72c.917.005,3.205.023,5.419.023h0c1.348,0,2.672-.006,3.642-.029a3.611,3.611,0,0,0,3-1.709l.04-.069a3.57407,3.57407,0,0,0,.349-3.011l3.486-2a3.01684,3.01684,0,0,0,.6-.465l2.988-3.194c.075-.075.149-.143.218-.218a4.46183,4.46183,0,0,1,2.139-1.485,2.78771,2.78771,0,0,1,.579-.063,1.83,1.83,0,0,1,1.56.786,1.3,1.3,0,0,1,.006,1.772Z"/><path id="Pfad_5" data-name="Pfad 5" class="cls-1" d="M16.04019,45.27771a1.41,1.41,0,1,0,.002,0Zm0,1.72a.76869.76869,0,1,0,.00107-.002h-.00107Z"/><path id="Pfad_6" data-name="Pfad 6" class="cls-1" d="M26.51222,15.66372a4.77492,4.77492,0,0,1,1.519,3.481v2.976a2.024,2.024,0,0,0,2.024,2.024h.281v.161a1.393,1.393,0,0,0,1.388,1.388h1.881a1.393,1.393,0,0,0,1.388-1.388v-.161h.27a2.016,2.016,0,0,0,2.019-2.013v-2.987a4.75793,4.75793,0,0,1,1.514-3.475,8.91,8.91,0,0,0,2.9-6.641,9.038,9.038,0,1,0-15.185,6.635Zm8.744,6.761h-5.207a.306.306,0,0,1-.3-.3v-2.115h5.814v2.115A.306.306,0,0,1,35.2562,22.42472Zm-2.735-20.708h.143a7.212,7.212,0,0,1,5.1,2.082,7.3,7.3,0,0,1,2.214,5.241,7.20005,7.20005,0,0,1-2.351,5.368,6.48992,6.48992,0,0,0-2,3.878h-5.946a6.48485,6.48485,0,0,0-2.01-3.884,7.321,7.321,0,0,1,4.846-12.685Z"/><path id="Pfad_7" data-name="Pfad 7" class="cls-1" d="M32.66322,5.51372v-1.72a5.247,5.247,0,0,0-5.241,5.241h1.72A3.522,3.522,0,0,1,32.66322,5.51372Z"/></g></g></g></svg>