<svg xmlns="http://www.w3.org/2000/svg" viewBox="0 0 97.94043 100.87793"><defs><style>.cls-1{fill:#612d62;}</style></defs><g id="Ebene_2" data-name="Ebene 2"><g id="Ebene_1-2" data-name="Ebene 1"><path class="cls-1" d="M93.27051,20.94043a7.61771,7.61771,0,0,0-7.32715,7.81641l.24316,7.49707-1.36718,5.52832-.39454-.00293h-.04589A5.39333,5.39333,0,0,0,80.582,43.35254L72.21,51.73047l-3.01758.52734A8.656,8.656,0,0,0,64.5332,54.667l-5.68945,5.68946a8.57665,8.57665,0,0,0-2.53809,5.9248l-.21875,9.7832-.335.11035a6.24,6.24,0,0,0-4.27734,5.84278L51.3418,94.36719a6.2565,6.2565,0,0,0,6.16308,6.29394l20.48535.2168.041-.00684.0332.00586A6.27049,6.27049,0,0,0,84.293,94.71387l.13183-12.34571a6.24344,6.24344,0,0,0-4.084-5.90722L79.96,76.32031l.10059-.68847a10.31773,10.31773,0,0,1,2.91015-5.78223l9.61035-9.61133a14.7403,14.7403,0,0,0,4.22168-8.83105l1.02051-9.67481a6.12158,6.12158,0,0,0,.11231-1.04883l.00488-.17675-.49805-15.65723A4.06169,4.06169,0,0,0,93.27051,20.94043ZM82.02637,82.33789,81.89355,94.6875a3.82923,3.82923,0,0,1-1.1582,2.69531,3.9425,3.9425,0,0,1-2.707,1.09571L57.5332,98.25977a3.83429,3.83429,0,0,1-2.38476-.87305l-.0166.01074-.2959-.28906a3.82367,3.82367,0,0,1-1.09766-2.71778l.13281-12.3496a3.84678,3.84678,0,0,1,3.83008-3.794l20.53028.21875A3.85576,3.85576,0,0,1,82.02637,82.33789ZM94.41016,51.165a12.32972,12.32972,0,0,1-3.53321,7.38574l-9.61133,9.61133a12.71781,12.71781,0,0,0-3.584,7.11914l-.11426.7832-19.081-.21.21094-9.52832a6.20621,6.20621,0,0,1,1.83691-4.2832l.31641-.31445.0039.00293,5.375-5.375a6.25681,6.25681,0,0,1,3.36817-1.73926l3.40039-.58692a1.14489,1.14489,0,0,0,.23535-.06933,1.2562,1.2562,0,0,0,.40137-.2627l8.64746-8.64941a2.97726,2.97726,0,0,1,2.11621-.876h.00293a2.99485,2.99485,0,0,1,2.1123,5.11524L76.585,59.2168a1.20057,1.20057,0,0,0,1.71484,1.67187l9.90723-9.9082a5.366,5.366,0,0,0,.03223-7.59082,5.43517,5.43517,0,0,0-.835-.6875l-.294-.19434,1.44336-5.834c.01074-.0752.01563-.11719.02051-.15918l.00781-.126-.249-7.70117a5.21059,5.21059,0,0,1,4.99121-5.34766,1.69289,1.69289,0,0,1,1.71973,1.5918l.49511,15.48242Z"/><path class="cls-1" d="M75.05469,83.89258a2.40625,2.40625,0,1,0,2.40625-2.40528A2.40854,2.40854,0,0,0,75.05469,83.89258Z"/><path class="cls-1" d="M42.18262,76.17383l-.335-.11035-.21875-9.78321a8.57993,8.57993,0,0,0-2.53614-5.92187L33.40039,54.667a8.64336,8.64336,0,0,0-4.65332-2.40527l-3.02344-.52734-8.373-8.37989a5.34621,5.34621,0,0,0-3.84278-1.57129l-.39453.00293-1.36719-5.52929.24414-7.501a7.613,7.613,0,0,0-7.34668-7.81348,4.05831,4.05831,0,0,0-4.15234,3.916L0,40.19238l.001.48926a5.55479,5.55479,0,0,0,.1084,1.01465l1.02636,9.71484a14.7348,14.7348,0,0,0,4.22168,8.832l9.61231,9.61231A10.3177,10.3177,0,0,1,17.877,75.62695l.10157.69434-.38086.14062a6.24576,6.24576,0,0,0-4.084,5.90723l.13281,12.34668a6.2716,6.2716,0,0,0,6.22852,6.16211l20.55566-.21777a6.25614,6.25614,0,0,0,6.16211-6.2959L46.46,82.0166A6.23555,6.23555,0,0,0,42.18262,76.17383ZM16.66406,68.16309l-9.6123-9.61231A12.33761,12.33761,0,0,1,3.51855,51.165l-1.126-10.68359.49121-15.54a1.636,1.636,0,0,1,.48926-1.12012l.00293-.00293a1.69467,1.69467,0,0,1,1.18554-.48047h.00586a5.21815,5.21815,0,0,1,5.02735,5.3418l-.249,7.668a1.32419,1.32419,0,0,0,.00879.168,1.09765,1.09765,0,0,0,.01758.123l.00977.083,1.43554,5.78711-.29394.19531a5.26666,5.26666,0,0,0-.80371.65625,5.41089,5.41089,0,0,0,.00195,7.62305l9.92773,9.92773a1.22794,1.22794,0,0,0,.84668.28125,1.20037,1.20037,0,0,0,.82618-1.99511l-9.89747-9.915a2.99381,2.99381,0,1,1,4.2334-4.23438l8.65137,8.65137a1.17007,1.17007,0,0,0,.376.251,1.18553,1.18553,0,0,0,.26269.081l3.39551.58691a6.22714,6.22714,0,0,1,3.36133,1.73926l5.6914,5.69141a6.201,6.201,0,0,1,1.83594,4.2832l.21094,9.5293-19.082.21094-.11426-.792A12.69855,12.69855,0,0,0,16.66406,68.16309ZM40.40039,98.2627l-20.48926.21972a3.889,3.889,0,0,1-2.71289-1.09375,3.82842,3.82842,0,0,1-1.15918-2.69629l-.13379-12.34863a3.85581,3.85581,0,0,1,3.793-3.874L40.18848,78.251a3.8577,3.8577,0,0,1,3.87207,3.79l.13379,12.3496A3.85562,3.85562,0,0,1,40.40039,98.2627Z"/><path class="cls-1" d="M20.47363,81.4873a2.40577,2.40577,0,1,0,2.40625,2.40528A2.40813,2.40813,0,0,0,20.47363,81.4873Z"/><path class="cls-1" d="M58.65723,25.917a9.688,9.688,0,1,0-9.68848,9.68848A9.69919,9.69919,0,0,0,58.65723,25.917Zm-9.68848,7.292a7.292,7.292,0,0,1-.001-14.584h.001a7.292,7.292,0,0,1,0,14.584Z"/><path class="cls-1" d="M26.39941,19.81152l3.41016,1.97071-.06934.35058a19.60813,19.60813,0,0,0,0,7.58106l.06934.35058-3.41016,1.97071a3.32262,3.32262,0,0,0-1.21093,4.52539l2.68164,4.6455A3.30859,3.30859,0,0,0,32.375,42.43457l3.42871-1.98242.26953.23633a19.46573,19.46573,0,0,0,6.56543,3.79l.33887.11621v3.93945a3.33063,3.33063,0,0,0,3.0957,3.30566l5.57617-.002a3.32362,3.32362,0,0,0,3.3125-3.3125V44.58594l.33887-.11621a19.47065,19.47065,0,0,0,6.56543-3.791l.26953-.23633,3.40918,1.97071a3.31158,3.31158,0,0,0,4.52246-1.21094l2.6836-4.64746a3.32457,3.32457,0,0,0-1.21289-4.52539l-3.40918-1.97071.06933-.34961a19.656,19.656,0,0,0,0-7.583l-.06933-.34961,3.41015-1.97071a3.322,3.322,0,0,0,1.21582-4.52636l-2.68164-4.64551a3.31936,3.31936,0,0,0-4.52441-1.21094l-3.40918,1.96973-.26953-.23633a19.4607,19.4607,0,0,0-6.56641-3.791L54.96484,7.249V3.31055A3.32027,3.32027,0,0,0,51.6543,0H46.28906a3.32342,3.32342,0,0,0-3.3125,3.31152V7.251l-.33886.11621a19.48357,19.48357,0,0,0-6.56739,3.791l-.26953.23633L32.39062,9.42285a3.32678,3.32678,0,0,0-4.52441,1.2168l-2.68359,4.64746A3.32223,3.32223,0,0,0,26.39941,19.81152Zm.85157-3.3291L29.93652,11.833a.924.924,0,0,1,1.2461-.33887l3.82617,2.209a4.83262,4.83262,0,0,0,.50391.25,1.45586,1.45586,0,0,0,.458.09766l.03516.001.01269-.002a1.23273,1.23273,0,0,0,.41993-.081,1.21737,1.21737,0,0,0,.39941-.26172A17.149,17.149,0,0,1,44.4502,9.31055a.86732.86732,0,0,1,.10156-.03907,1.30735,1.30735,0,0,0,.36426-.21093,1.36012,1.36012,0,0,0,.27441-.33692,1.33467,1.33467,0,0,0,.13867-.42578,5.33921,5.33921,0,0,0,.03613-.584V3.30957a.92243.92243,0,0,1,.915-.91406h5.36524a.91776.91776,0,0,1,.916.91211V7.71973a5.51932,5.51932,0,0,0,.03614.57812.93.93,0,0,0,.03125.14746l.07714.21387a.87848.87848,0,0,0,.04981.11133,1.90531,1.90531,0,0,0,.126.1748c.09472.09278.13281.12891.17382.16309.11329.07519.15332.10058.19434.12305.12012.04687.17383.0664.22852.084a17.17761,17.17761,0,0,1,7.60937,4.39844,1.2154,1.2154,0,0,0,.38574.2539,1.23264,1.23264,0,0,0,.43262.08692l.03906.001.01856-.001a1.18427,1.18427,0,0,0,.3623-.07031,4.05438,4.05438,0,0,0,.59278-.2793l3.81933-2.2041a.923.923,0,0,1,.69434-.09278.903.903,0,0,1,.55761.42676l2.6836,4.64649a.91653.91653,0,0,1-.335,1.252l-3.81543,2.20117a4.78318,4.78318,0,0,0-.4336.2832,1.19811,1.19811,0,0,0-.48144,1.3545,17.36275,17.36275,0,0,1,.001,8.68554l-.01172.05567a1.14712,1.14712,0,0,0-.0293.18261l-.01563.10547c.00391.01758.00586.08985.01563.16211a1.17461,1.17461,0,0,0,.3916.74121l.08984.08106a4.759,4.759,0,0,0,.47168.3125l3.81739,2.19824a.91944.91944,0,0,1,.33691,1.251l-2.68555,4.64843a.91274.91274,0,0,1-1.25.334l-3.81738-2.19922a4.44317,4.44317,0,0,0-.47656-.24024l-.01758-.00488a1.22583,1.22583,0,0,0-1.3418.24121,17.20482,17.20482,0,0,1-7.51367,4.36621l-.20312.07032a1.19175,1.19175,0,0,0-.71875.7334,1.89949,1.89949,0,0,0-.05274.23535,5.34169,5.34169,0,0,0-.03613.584v4.4082a.918.918,0,0,1-.91309.916H46.28125a.91922.91922,0,0,1-.916-.916V44.11426a5.1835,5.1835,0,0,0-.03613-.57617l-.0039-.041c-.00586-.02734-.0127-.05469-.02051-.081l.02832-.03614.02246.00391-.08106-.09766a1.29338,1.29338,0,0,0-.59863-.67773,1.33174,1.33174,0,0,0-.19043-.07617l-.0332-.00879a17.19462,17.19462,0,0,1-7.60938-4.39356,1.194,1.194,0,0,0-1.28418-.25781l-.10058.03027c-.10742.05274-.28125.13965-.4502.23536l-3.81836,2.20019a.91652.91652,0,0,1-1.252-.335l-2.68359-4.64648a.92.92,0,0,1,.333-1.252l3.82129-2.206a4.94636,4.94636,0,0,0,.48047-.32032l.07813-.07226a1.18363,1.18363,0,0,0,.39258-.72168,1.68073,1.68073,0,0,0,.00781-.23633,1.91911,1.91911,0,0,0-.03809-.2334l-.01465-.06738a17.33863,17.33863,0,0,1,.0166-8.72461,1.215,1.215,0,0,0-.46679-1.2832,5.05746,5.05746,0,0,0-.459-.30567l-3.8164-2.20312A.92089.92089,0,0,1,27.251,16.48242Z"/></g></g></svg>