<svg xmlns="http://www.w3.org/2000/svg" viewBox="0 0 63.75299 64.91399"><defs><style>.cls-1{fill:#4d7c0f;stroke:#4d7c0f; stroke-width:0.25px;}</style></defs><g id="Ebene_2" data-name="Ebene 2"><g id="Ebene_1-2" data-name="Ebene 1"><g id="Gruppe_25" data-name="Gruppe 25"><path id="Pfad_38" data-name="Pfad 38" class="cls-1" d="M62.768,15.401H56.45V10.275a.862.862,0,0,0-.862-.862H49.406V.987a.862.862,0,0,0-.862-.862H.987a.861.861,0,0,0-.862.86V56.749a8.049,8.049,0,0,0,8.04,8.04l48.674-.088h0a7.986,7.986,0,0,0,6.789-7.885V16.264a.862.862,0,0,0-.862-.862Zm-8.04,44.286a3.427,3.427,0,0,1-1.542,2.869,6.294,6.294,0,0,1-1.948-1.321,6.21,6.21,0,0,1-1.831-4.42V26.133a.86151.86151,0,1,0-1.723,0V56.815a7.94394,7.94394,0,0,0,3.026,6.25H8.165a6.325,6.325,0,0,1-6.317-6.318V1.847H47.685V26.939a.8615.8615,0,1,0,1.723,0V11.133h5.321Zm7.179-2.872h0a6.256,6.256,0,0,1-6.25,6.25c-.15,0-.3-.007-.448-.017h0a5.148,5.148,0,0,0,1.242-3.362V17.125h5.456Z"/><path id="Pfad_39" data-name="Pfad 39" class="cls-1" d="M43.059,39.35H40.113a.862.862,0,0,0,0,1.723h2.946a.862.862,0,0,0,0-1.723Z"/><path id="Pfad_40" data-name="Pfad 40" class="cls-1" d="M37.274,39.35H24.196a.862.862,0,0,0,0,1.723H37.274a.862.862,0,0,0,0-1.723Z"/><path id="Pfad_41" data-name="Pfad 41" class="cls-1" d="M43.76,35.558a.862.862,0,0,0-.862-.862H28.835a.862.862,0,0,0,0,1.723H42.899A.862.862,0,0,0,43.76,35.558Z"/><path id="Pfad_42" data-name="Pfad 42" class="cls-1" d="M24.196,36.419h1.805a.862.862,0,0,0,0-1.723H24.196a.862.862,0,0,0,0,1.723Z"/><path id="Pfad_43" data-name="Pfad 43" class="cls-1" d="M43.76,44.915a.862.862,0,0,0-.862-.861H28.835a.8615.8615,0,0,0,0,1.723H42.899A.862.862,0,0,0,43.76,44.915Z"/><path id="Pfad_44" data-name="Pfad 44" class="cls-1" d="M24.196,45.771h1.805a.8615.8615,0,1,0,0-1.723H24.196a.8615.8615,0,1,0,0,1.723Z"/><path id="Pfad_45" data-name="Pfad 45" class="cls-1" d="M43.059,48.25H40.113a.862.862,0,0,0,0,1.723h2.946a.862.862,0,0,0,0-1.723Z"/><path id="Pfad_46" data-name="Pfad 46" class="cls-1" d="M24.196,49.973H37.274a.862.862,0,0,0,0-1.723H24.196a.862.862,0,0,0,0,1.723Z"/><path id="Pfad_47" data-name="Pfad 47" class="cls-1" d="M43.056,52.558h-8.69a.862.862,0,0,0,0,1.723h8.69a.862.862,0,0,0,0-1.723Z"/><path id="Pfad_48" data-name="Pfad 48" class="cls-1" d="M31.53,52.558H24.194a.862.862,0,0,0-.05895,1.723q.02947.001.05895,0H31.53a.862.862,0,0,0,0-1.723Z"/><path id="Pfad_49" data-name="Pfad 49" class="cls-1" d="M8.174,28.395h34.58a.862.862,0,0,0,.862-.862V8.461a.862.862,0,0,0-.862-.862H8.174a.862.862,0,0,0-.862.862V27.534A.862.862,0,0,0,8.174,28.395Zm3.345-1.723,13.944-7.691,13.944,7.691Zm30.373-.6L27.247,17.995,41.892,9.918ZM39.408,9.32,25.463,17.013,11.517,9.323Zm-30.373.6L23.68,17.997,9.035,26.074Z"/><path id="Pfad_50" data-name="Pfad 50" class="cls-1" d="M20.069,33.156H8.174a.861.861,0,0,0-.862.86v20.08a.861.861,0,0,0,.861.861H20.069a.861.861,0,0,0,.862-.86V34.017a.861.861,0,0,0-.861-.861Zm-1.512,1.72-4.435,7.487L9.686,34.876ZM9.035,37.159l4.084,6.894L9.035,50.948Zm.65,16.072,4.435-7.487,4.435,7.487Zm9.522-2.283-4.084-6.895,4.084-6.894Z"/></g></g></g></svg>