<svg xmlns="http://www.w3.org/2000/svg" viewBox="0 0 168.11744 86.6748"><defs><style>.cls-1{fill:#612d62;}</style></defs><g id="Ebene_2" data-name="Ebene 2"><g id="Ebene_1-2" data-name="Ebene 1"><path class="cls-1" d="M70.86351,37.97754l-.085.0459a1.52714,1.52714,0,0,0-.62451,2.06445l.05762.09961c4.581,7.96582-2.02979,14.62109-2.09668,14.6875a1.84649,1.84649,0,0,0,.04492,2.38184,1.70971,1.70971,0,0,0,2.3169-.0586c3.03808-3.21875,7.03418-10.7666,2.53369-18.43359A1.64366,1.64366,0,0,0,70.86351,37.97754Z"/><path class="cls-1" d="M74.35618,14.21289a1.6527,1.6527,0,0,0-.4126-.05371,1.60415,1.60415,0,0,0-.80908.2207c-1.38818.91992-4.65234,3.46094-4.93848,7.18653-.15673,2.82226,1.2295,5.44336,4.36329,8.22851a1.76414,1.76414,0,0,0,2.34179-.28222,1.6782,1.6782,0,0,0-.2583-2.32715c-.78711-.58789-3.44043-2.79395-3.17773-5.41407-.0044-2.13281,2.32226-3.88574,3.19824-4.54492l.09521-.06347a1.61171,1.61171,0,0,0-.40234-2.9502Z"/><path class="cls-1" d="M123.37327,32.43066a12.446,12.446,0,0,0-7.02148-11.668h-.58887l-.08789-.78125A15.54156,15.54156,0,0,0,101.09886,6.084l-.44092-.02539-.24072-.37109A12.48,12.48,0,0,0,90.0427,0,11.29806,11.29806,0,0,0,84.404,1.49316l-.43408.252-.43652-.24707A11.55443,11.55443,0,0,0,77.87669,0,12.47589,12.47589,0,0,0,67.51194,5.68848l-.24072.37011L66.8303,6.084A15.54263,15.54263,0,0,0,52.25559,19.98145l-.05224.48339-.438.21094a12.7755,12.7755,0,0,0-7.20459,11.72559,13.30476,13.30476,0,0,0,2.521,7.918l.314.43554-.24609.47754a13.66072,13.66072,0,0,0-1.51416,6.22266A13.96974,13.96974,0,0,0,50.69017,58.2373l.29931.249.01563.38867A18.02875,18.02875,0,0,0,63.13938,75.26758l.42676.14941.12549.43457A14.87944,14.87944,0,0,0,77.89671,86.6748a13.65858,13.65858,0,0,0,5.69678-1.34472l.37939-.18262.37988.18262a13.66945,13.66945,0,0,0,5.71729,1.34472,14.86136,14.86136,0,0,0,14.18164-10.8164l.12305-.43945.43066-.15137A18.0366,18.0366,0,0,0,116.92991,58.875l.01563-.39355.30468-.249a13.6827,13.6827,0,0,0,5.04883-10.77051,13.14251,13.14251,0,0,0-1.50976-6.22265l-.25586-.48438.32324-.4414A13.07746,13.07746,0,0,0,123.37327,32.43066ZM81.97972,81.6416l-.18848.8086a10.31518,10.31518,0,0,1-3.88916.76269,10.82024,10.82024,0,0,1-4.62695-1.05859,12.24462,12.24462,0,0,1-6.43067-7.41211,9.9847,9.9847,0,0,1-.397-2.56836A3.6879,3.6879,0,0,1,68.092,68.919l.10107-.05762a4.0223,4.0223,0,0,1,3.89747.22851l1.48486,1.11036a1.54319,1.54319,0,1,0,1.96728-2.37793l-1.40527-1.05176a6.738,6.738,0,0,0-10.79492,3.78515L63.094,71.665l-1.00927-.52442a14.89314,14.89314,0,0,1-7.98828-12.55371l-.00342-.07812.01025-.07617a10.21235,10.21235,0,0,1,8.02832-8.61426,1.59809,1.59809,0,0,0,.86572-.77832,1.62526,1.62526,0,0,0-1.76757-2.34082,13.59965,13.59965,0,0,0-8.895,6.72266l-.65039,1.18652-.815-1.08008a10.70263,10.70263,0,0,1-2.147-6.43652,10.8908,10.8908,0,0,1,1.75147-6.02051,1.37848,1.37848,0,0,0-.18457-1.89844,9.79562,9.79562,0,0,1-2.81885-6.93847,10.08,10.08,0,0,1,3.92236-8.02833l.936-.71875.41552,1.10547a16.08284,16.08284,0,0,0,9.67481,9.50684l.11377.0498a.72048.72048,0,0,0,.4082.08106l.063-.00586.06348.00293a1.40838,1.40838,0,0,0,1.4458-1,1.65407,1.65407,0,0,0-.917-2.14356c-4.83838-1.93457-7.66944-5.293-8.41993-9.98339l-.01318-.08594.00293-.08594A12.24972,12.24972,0,0,1,67.12132,9.169h.55615a1.53077,1.53077,0,0,0,1.52588-.90821A8.95523,8.95523,0,0,1,81.00462,3.6582c.16992.07422.33594.15332.49951.23731l.47559.24414ZM117.259,41.20605l1.12012,2.251a10.97193,10.97193,0,0,1-1.48828,10.23535l-.83692,1.14063-.64648-1.25879a12.73018,12.73018,0,0,0-8.88086-6.7002,1.62509,1.62509,0,0,0-.81641,3.14063,10.22112,10.22112,0,0,1,7.93653,8.39746l.01269.08008-.002.08008a14.7013,14.7013,0,0,1-7.80127,12.56347l-.97754.51758-.27881-1.07031a6.89871,6.89871,0,0,0-3.33447-4.28613,6.69075,6.69075,0,0,0-7.44385.63281l-1.4541,1.08984a1.51368,1.51368,0,0,0-.49853,1.01758,1.543,1.543,0,0,0,2.48144,1.34668l1.44238-1.08106a3.53278,3.53278,0,0,1,5.69288,3.11036,11.37964,11.37964,0,0,1-.38428,2.47265A12.1432,12.1432,0,0,1,94.863,82.16113a11.19163,11.19163,0,0,1-4.92139,1.16016,10.71508,10.71508,0,0,1-3.77393-.68652l-.56787-.21289V4.31934l.47412-.24512A8.95541,8.95541,0,0,1,98.13743,7.9375q.12744.24609.23828.5a1.70956,1.70956,0,0,0,1.52.9082h.72168A12.25614,12.25614,0,0,1,112.592,21.10449l.00391.09668-.01758.09571a13.17358,13.17358,0,0,1-8.4375,9.97167,1.63832,1.63832,0,0,0-.91113,2.09083,1.66471,1.66471,0,0,0,1.52295,1.04492.83432.83432,0,0,0,.47705-.0791l.11425-.04981a16.07018,16.07018,0,0,0,9.67481-9.50684l.4043-1.07421.92871.67382a9.53735,9.53735,0,0,1,3.93945,8.07813,9.73449,9.73449,0,0,1-2.75,6.83984A1.41224,1.41224,0,0,0,117.259,41.20605Z"/><path class="cls-1" d="M99.85325,54.72949l.01367-.01562a9.994,9.994,0,0,1-1.94922-2.51075,11.69057,11.69057,0,0,1-.21093-11.98828l.0039-.00488a1.61118,1.61118,0,0,0-2.7832-1.624c-4.8252,8.22168.20312,16.10742,2.54785,18.45117a1.41259,1.41259,0,0,0,1.12549.46094h.00635a1.71434,1.71434,0,0,0,1.22168-.47168,1.52806,1.52806,0,0,0,.15674-2.165A1.46608,1.46608,0,0,0,99.85325,54.72949Z"/><path class="cls-1" d="M93.241,29.7168a1.20228,1.20228,0,0,0,1.0205.39843l.06983-.00488a1.9994,1.9994,0,0,0,1.12207-.374c3.16064-2.498,4.6167-5.24512,4.29346-8.1416-.33789-4.55078-4.84473-7.165-4.89014-7.18848A1.725,1.725,0,0,0,93.988,14.168a1.606,1.606,0,0,0-.80664,2.99414l.084.05566c.78565.58887,3.17529,2.38086,3.38965,4.73731.165,1.66113-.87012,3.42969-3.166,5.39746A1.68624,1.68624,0,0,0,93.241,29.7168Z"/><path class="cls-1" d="M158.78245,30.96875l-.18066-.002a9.32245,9.32245,0,0,0-8.80567,7.03711l-.167.66015H136.95237a1.63092,1.63092,0,1,0-.083,3.26074h12.75879l.166.66211a9.30192,9.30192,0,0,0,18.32324-2.291A9.48807,9.48807,0,0,0,158.78245,30.96875Zm.88574,15.48828v.07715l-.875.00293a6.24512,6.24512,0,1,1,6.24414-6.24512A6.37135,6.37135,0,0,1,159.66819,46.457Z"/><path class="cls-1" d="M130.29319,27.044l.44141.02148a1.39057,1.39057,0,0,0,1.10644-.44238l8.90528-8.9043.58008.334a9.93714,9.93714,0,0,0,4.76953,1.31543,9.33308,9.33308,0,0,0,9.31054-9.32519,9.49033,9.49033,0,0,0-9.335-9.3252,9.33328,9.33328,0,0,0-9.31445,9.3252,8.9112,8.9112,0,0,0,1.30371,4.73535l.3584.58789-8.89941,8.90039a1.84094,1.84094,0,0,0,.04,2.38574A1.37984,1.37984,0,0,0,130.29319,27.044Zm14.91407-23.1543v-.0918l.875-.0039a6.24512,6.24512,0,1,1-6.24415,6.24511A6.49084,6.49084,0,0,1,145.20726,3.88965Z"/><path class="cls-1" d="M146.30589,61.39746l-.7334.00586a8.90833,8.90833,0,0,0-4.22363,1.29492l-.58789.3584-8.90039-8.89941a1.61966,1.61966,0,0,0-1.127-.44922,1.65821,1.65821,0,0,0-1.20215,2.80469l8.874,8.873-.334.58106a9.92768,9.92768,0,0,0-1.31543,4.76953,9.32408,9.32408,0,0,0,9.31836,9.31836h.00586a9.32575,9.32575,0,0,0,9.3252-9.31836,9.20856,9.20856,0,0,0-9.09961-9.33887Zm4.30273,13.68945a6.10811,6.10811,0,0,1-4.31347,1.88086c-.03614.001-.07325.002-.11231.002-.041,0-.083-.001-.126-.002v-.001a6.24466,6.24466,0,0,1,.0254-12.48926h.002a6.25079,6.25079,0,0,1,6.24414,6.24414A6.10146,6.10146,0,0,1,150.60862,75.08691Z"/><path class="cls-1" d="M32.79808,40.291a1.63241,1.63241,0,0,0-1.63038-1.63086H18.49534l-.16846-.65821A9.307,9.307,0,0,0,1.30345,35.56641,9.30721,9.30721,0,0,0,9.31028,49.61719h.01807a9.24209,9.24209,0,0,0,9.00342-7.06153l.11084-.63476H31.1677A1.6322,1.6322,0,0,0,32.79808,40.291ZM9.16136,46.53516c-.02832,0-.05713.001-.08545.001a6.2454,6.2454,0,0,1-.0835-12.49023h.17481a6.24524,6.24524,0,0,1-.00586,12.48926Z"/><path class="cls-1" d="M37.29905,53.64355a1.726,1.726,0,0,0-1.127.4209l-.0918.09278L27.19358,63.044,26.613,62.71a9.931,9.931,0,0,0-4.77-1.31543h-.00782A9.32472,9.32472,0,0,0,21.84349,80.044a9.49377,9.49377,0,0,0,9.33935-9.335,8.90577,8.90577,0,0,0-1.3042-4.7246l-.3584-.5879,8.89991-8.90039a1.65634,1.65634,0,0,0-1.1211-2.85254ZM28.10667,70.73633a6.36722,6.36722,0,0,1-6.22949,6.23047l-.00635-.29785.00244.29785c-.02832,0-.05713.001-.08545.001a6.24491,6.24491,0,0,1-.08349-12.48925h.1748a6.146,6.146,0,0,1,6.22754,6.03418Z"/><path class="cls-1" d="M21.84837,19.36621a9.31342,9.31342,0,0,0,4.749-1.30469l.58789-.3584,8.8999,8.89942a1.7091,1.7091,0,0,0,2.35694-.01465,1.842,1.842,0,0,0-.05567-2.37109l-8.84814-8.83887.3335-.581a9.93428,9.93428,0,0,0,1.31591-4.77051A9.33276,9.33276,0,0,0,21.86253.71582h-.00635a9.3252,9.3252,0,0,0-.00781,18.65039ZM21.85716,3.7998A6.14141,6.14141,0,0,1,28.10472,9.835v.22363a6.2476,6.2476,0,0,1-6.15918,6.30469c-.02832,0-.05762.001-.08594.001a6.25354,6.25354,0,0,1-6.24414-6.16114l-.001-.16113A6.275,6.275,0,0,1,21.85716,3.7998Z"/></g></g></svg>