<svg xmlns="http://www.w3.org/2000/svg" viewBox="0 0 61.6325 24.14099"><defs><style>.cls-1{fill:#0f426a;fill-rule:evenodd;}</style></defs><g id="Ebene_2" data-name="Ebene 2"><g id="Ebene_1-2" data-name="Ebene 1"><path class="cls-1" d="M60.23254.001,38.8905,0a1.4,1.4,0,0,0-1.4,1.4v9.267H23.7185a11.9,11.9,0,1,0,0,2.8h13.771v9.274a1.4,1.4,0,0,0,1.4,1.4h21.343a1.4,1.4,0,0,0,1.4-1.4V1.401A1.39994,1.39994,0,0,0,60.23254.001Zm-49.654,12.5863a1.4,1.4,0,0,0,1.322.88068h8.993a9.1,9.1,0,1,1,0-2.8h-8.993a1.44315,1.44315,0,0,0-.541.1A1.4,1.4,0,0,0,10.57849,12.58734Zm48.254,8.75464H40.2915V13.469h9.273a1.44665,1.44665,0,0,0,.541-.1,1.40008,1.40008,0,0,0,.77674-1.82123l-.00775-.0188a1.39577,1.39577,0,0,0-1.309-.856h-9.274l-.001-7.873h18.542Z"/></g></g></svg>